<svg class="railroad-diagram" width="276" height="92" viewBox="0 0 276 92" xmlns="http://www.w3.org/2000/svg" xmlns:xlink="http://www.w3.org/1999/xlink">
    <g transform="translate(.5 .5)">
    <g>
    <path d="M20 21v20m10 -20v20m-10 -10h20"></path>
    </g>
    <path d="M40 31h10"></path>
    <g class="terminal ">
    <path d="M50 31h0"></path>
    <path d="M94 31h0"></path>
    <rect x="50" y="20" width="44" height="22" rx="10" ry="10"></rect>
    <text x="72" y="35">&#60;x></text>
    </g>
    <path d="M94 31h10"></path>
    <g>
    <path d="M104 31h0"></path>
    <path d="M236 31h0"></path>
    <path d="M104 31h20"></path>
    <g>
    <path d="M124 31h0"></path>
    <path d="M216 31h0"></path>
    <g class="terminal ">
    <path d="M124 31h0"></path>
    <path d="M152 31h0"></path>
    <rect x="124" y="20" width="28" height="22" rx="10" ry="10"></rect>
    <text x="138" y="35">a</text>
    </g>
    <path d="M152 31h10"></path>
    <path d="M162 31h10"></path>
    <g class="terminal ">
    <path d="M172 31h0"></path>
    <path d="M216 31h0"></path>
    <rect x="172" y="20" width="44" height="22" rx="10" ry="10"></rect>
    <text x="194" y="35">&#60;x></text>
    </g>
    </g>
    <path d="M216 31h20"></path>
    <path d="M104 31a10 10 0 0 1 10 10v10a10 10 0 0 0 10 10"></path>
    <g class="terminal ">
    <path d="M124 61h32"></path>
    <path d="M184 61h32"></path>
    <rect x="156" y="50" width="28" height="22" rx="10" ry="10"></rect>
    <text x="170" y="65">ε</text>
    </g>
    <path d="M216 61a10 10 0 0 0 10 -10v-10a10 10 0 0 1 10 -10"></path>
    </g>
    <path d="M 236 31 h 20 m -10 -10 v 20 m 10 -20 v 20"></path>
    </g>
    <style>
        svg {
            background-color: hsl(30,20%,95%);
        }
        path {
            stroke-width: 3;
            stroke: black;
            fill: rgba(0,0,0,0);
        }
        text {
            font: bold 14px monospace;
            text-anchor: middle;
            white-space: pre;
        }
        text.diagram-text {
            font-size: 12px;
        }
        text.diagram-arrow {
            font-size: 16px;
        }
        text.label {
            text-anchor: start;
        }
        text.comment {
            font: italic 12px monospace;
        }
        g.non-terminal text {
            /&#42;font-style: italic;&#42;/
        }
        rect {
            stroke-width: 3;
            stroke: black;
            fill: hsl(120,100%,90%);
        }
        rect.group-box {
            stroke: gray;
            stroke-dasharray: 10 5;
            fill: none;
        }
        path.diagram-text {
            stroke-width: 3;
            stroke: black;
            fill: white;
            cursor: help;
        }
        g.diagram-text:hover path.diagram-text {
            fill: #eee;
        }</style>
    </svg>
    